<svg width="33" height="33" viewBox="0 0 33 33" fill="none" xmlns="http://www.w3.org/2000/svg">
<g clip-path="url(#clip0_131_159)">
<path d="M26.5179 11.4913C26.5179 9.37482 24.804 7.66092 22.6875 7.66092C20.571 7.66092 18.8571 9.37482 18.8571 11.4913C18.8571 13.6077 20.571 15.3216 22.6875 15.3216C24.804 15.3216 26.5179 13.6077 26.5179 11.4913ZM28.2857 11.4913C28.2857 14.5841 25.7803 17.0895 22.6875 17.0895C19.5947 17.0895 17.0893 14.5841 17.0893 11.4913C17.0893 8.39846 19.5947 5.89307 22.6875 5.89307C25.7803 5.89307 28.2857 8.39846 28.2857 11.4913ZM15.0268 24.203C15.0268 25.3415 15.0249 25.3395 15.7027 25.3395H30.2616C30.9393 25.3395 30.9375 25.3415 30.9375 24.203C30.9375 21.5477 27.3063 20.0359 22.9821 20.0359C18.6579 20.0359 15.0268 21.5477 15.0268 24.203ZM22.9821 18.2681C28.1905 18.2681 32.7054 20.1477 32.7054 24.203C32.7054 26.2845 31.9525 27.1074 30.2616 27.1074H15.7027C14.0118 27.1074 13.2589 26.2845 13.2589 24.203C13.2589 20.1477 17.7738 18.2681 22.9821 18.2681ZM6.77679 8.25021C7.26497 8.25021 7.66071 8.64596 7.66071 9.13414V14.1431H12.6696C13.1578 14.1431 13.5536 14.5388 13.5536 15.027C13.5536 15.5152 13.1578 15.9109 12.6696 15.9109H7.66071V20.9199C7.66071 21.408 7.26497 21.8038 6.77679 21.8038C6.28861 21.8038 5.89286 21.408 5.89286 20.9199V15.9109H0.883929C0.395748 15.9109 0 15.5152 0 15.027C0 14.5388 0.395748 14.1431 0.883929 14.1431H5.89286V9.13414C5.89286 8.64596 6.28861 8.25021 6.77679 8.25021Z" fill="#1D1D1D"/>
</g>
<defs>
<clipPath id="clip0_131_159">
<rect width="33" height="33" fill="white"/>
</clipPath>
</defs>
</svg>
