<svg width="33" height="33" viewBox="0 0 33 33" fill="none" xmlns="http://www.w3.org/2000/svg">
<path d="M18.5625 27.5C19.7016 27.5 20.625 26.5766 20.625 25.4375C20.625 23.539 22.164 22 24.0625 22C25.2016 22 26.125 21.0766 26.125 19.9375V15.8125C26.125 15.4328 26.4328 15.125 26.8125 15.125C27.1922 15.125 27.5 15.4328 27.5 15.8125V19.9375C27.5 24.8735 23.4985 28.875 18.5625 28.875H8.9375C7.03902 28.875 5.5 27.336 5.5 25.4375V7.5625C5.5 5.66402 7.03902 4.125 8.9375 4.125H17.1875C17.5672 4.125 17.875 4.4328 17.875 4.8125C17.875 5.1922 17.5672 5.5 17.1875 5.5H8.9375C7.79841 5.5 6.875 6.42341 6.875 7.5625V25.4375C6.875 26.5766 7.79841 27.5 8.9375 27.5H18.5625ZM21.7131 26.8145C23.3576 26.0598 24.6848 24.7326 25.4395 23.0881C25.0179 23.2726 24.5522 23.375 24.0625 23.375C22.9234 23.375 22 24.2984 22 25.4375C22 25.9272 21.8976 26.3929 21.7131 26.8145ZM24.75 8.25H28.1875C28.5672 8.25 28.875 8.5578 28.875 8.9375C28.875 9.3172 28.5672 9.625 28.1875 9.625H24.75V13.0625C24.75 13.4422 24.4422 13.75 24.0625 13.75C23.6828 13.75 23.375 13.4422 23.375 13.0625V9.625H19.9375C19.5578 9.625 19.25 9.3172 19.25 8.9375C19.25 8.5578 19.5578 8.25 19.9375 8.25H23.375V4.8125C23.375 4.4328 23.6828 4.125 24.0625 4.125C24.4422 4.125 24.75 4.4328 24.75 4.8125V8.25ZM11.6875 12.375C11.3078 12.375 11 12.0672 11 11.6875C11 11.3078 11.3078 11 11.6875 11H17.1875C17.5672 11 17.875 11.3078 17.875 11.6875C17.875 12.0672 17.5672 12.375 17.1875 12.375H11.6875ZM11.6875 16.5C11.3078 16.5 11 16.1922 11 15.8125C11 15.4328 11.3078 15.125 11.6875 15.125H21.3125C21.6922 15.125 22 15.4328 22 15.8125C22 16.1922 21.6922 16.5 21.3125 16.5H11.6875ZM11.6875 20.625C11.3078 20.625 11 20.3172 11 19.9375C11 19.5578 11.3078 19.25 11.6875 19.25H18.5625C18.9422 19.25 19.25 19.5578 19.25 19.9375C19.25 20.3172 18.9422 20.625 18.5625 20.625H11.6875Z" fill="#1D1D1D"/>
</svg>
