<svg width="36" height="37" viewBox="0 0 36 37" fill="none" xmlns="http://www.w3.org/2000/svg">
<path d="M26.0625 31.9375C25.1031 30.9781 23.2727 30.0763 22.4364 29.6933C22.275 29.6193 22.275 29.3807 22.4364 29.3067C23.2727 28.9237 25.1031 28.0219 26.0625 27.0625C27.0219 26.1031 27.9237 24.2727 28.3067 23.4364C28.3807 23.275 28.6193 23.275 28.6933 23.4364C29.0763 24.2727 29.9781 26.1031 30.9375 27.0625C31.8969 28.0219 33.7273 28.9237 34.5636 29.3067C34.725 29.3807 34.725 29.6193 34.5636 29.6933C33.7273 30.0763 31.8969 30.9781 30.9375 31.9375C29.9781 32.8969 29.0763 34.7273 28.6933 35.5636C28.6193 35.725 28.3807 35.725 28.3067 35.5636C27.9237 34.7273 27.0219 32.8969 26.0625 31.9375Z" stroke="#1D1D1D" stroke-width="2"/>
<path d="M8.38461 10.0698C6.22591 12.1908 2.93414 13.5807 1.59638 14.0876C1.41356 14.1568 1.41625 14.4392 1.60026 14.5052C2.9405 14.9862 6.228 16.3238 8.38461 18.5349C10.5994 20.8056 12.0308 24.8733 12.5121 26.3995C12.5708 26.5856 12.8457 26.596 12.9182 26.4148C13.5238 24.9006 15.2966 20.8133 17.6154 18.5349C19.8093 16.3793 22.9389 15.0539 24.3109 14.5431C24.5017 14.472 24.4908 14.1673 24.2956 14.1094C22.9131 13.6995 19.7898 12.6167 17.6154 10.6744C15.3036 8.60941 13.5193 3.58529 12.9147 1.71611C12.8516 1.52103 12.554 1.52617 12.4981 1.72342C12.0034 3.46665 10.5782 7.91441 8.38461 10.0698Z" stroke="#1D1D1D" stroke-width="2"/>
</svg>
