<svg width="15" height="15" viewBox="0 0 15 15" fill="none" xmlns="http://www.w3.org/2000/svg">
<path d="M4.57366 0.646857L4.37538 0.845141C4.27504 0.945271 4.31171 0.974779 4.31171 1.10518C4.31171 1.23526 4.35572 1.29966 4.45606 1.39979L10.8199 7.76375L4.45606 14.1277C4.35572 14.2279 4.28223 14.381 4.28223 14.5112C4.28223 14.6415 4.35572 14.7347 4.45606 14.8348C4.55619 14.9352 4.64088 15 4.77118 15C4.90137 15 5.06287 14.935 5.163 14.8348L11.8805 8.11731C11.9807 8.01718 12.0002 7.8555 12.0002 7.72526C12.0002 7.59501 11.8528 7.38167 11.7526 7.28159L5.16301 0.692683C5.06282 0.592553 5.0068 0.540071 4.87666 0.540071C4.74637 0.540071 4.67401 0.546727 4.57366 0.646857Z" fill="#1D1D1D"/>
</svg>
