<svg width="15" height="15" viewBox="0 0 15 15" fill="none" xmlns="http://www.w3.org/2000/svg">
<path d="M10.972 14.8501L11.7234 14.0987C11.8238 13.9985 11.8738 13.8832 11.8738 13.7528C11.8738 13.6227 11.8238 13.5074 11.7234 13.4073L5.81653 7.50008L11.7233 1.59313C11.8236 1.49295 11.8736 1.37766 11.8736 1.24742C11.8736 1.11712 11.8236 1.00183 11.7233 0.901698L10.9718 0.150353C10.8717 0.0500125 10.7564 0 10.6261 0C10.4959 0 10.3806 0.0501704 10.2805 0.150353L3.27632 7.15436C3.17614 7.25449 3.12607 7.36984 3.12607 7.50008C3.12607 7.63032 3.17614 7.74546 3.27632 7.84553L10.2805 14.8501C10.3807 14.9503 10.496 15 10.6261 15C10.7564 15 10.8717 14.9503 10.972 14.8501Z" fill="#1D1D1D"/>
</svg>
