<svg width="30" height="30" viewBox="0 0 30 30" fill="none" xmlns="http://www.w3.org/2000/svg">
<g clip-path="url(#clip0_312_332)" filter="url(#filter0_d_312_332)">
<rect x="4.5" y="0.5" width="21" height="21" rx="3.5" stroke="#1D1D1D"/>
<path d="M22.8501 6.38268L22.0987 5.23054C21.9985 5.07669 21.8832 5 21.7528 5C21.6227 5 21.5074 5.07669 21.4073 5.23054L15.5001 14.2878L9.59313 5.23078C9.49295 5.07693 9.37766 5.00024 9.24742 5.00024C9.11712 5.00024 9.00183 5.07693 8.9017 5.23078L8.15035 6.38301C8.05001 6.53654 8 6.71332 8 6.91311C8 7.11273 8.05017 7.28951 8.15035 7.44305L15.1544 18.1828C15.2545 18.3364 15.3698 18.4131 15.5001 18.4131C15.6303 18.4131 15.7455 18.3364 15.8455 18.1828L22.8501 7.44305C22.9503 7.28943 23 7.11265 23 6.91311C23 6.71332 22.9503 6.53654 22.8501 6.38268Z" fill="#C25DFF"/>
</g>
<defs>
<filter id="filter0_d_312_332" x="0" y="0" width="30" height="30" filterUnits="userSpaceOnUse" color-interpolation-filters="sRGB">
<feFlood flood-opacity="0" result="BackgroundImageFix"/>
<feColorMatrix in="SourceAlpha" type="matrix" values="0 0 0 0 0 0 0 0 0 0 0 0 0 0 0 0 0 0 127 0" result="hardAlpha"/>
<feOffset dy="4"/>
<feGaussianBlur stdDeviation="2"/>
<feComposite in2="hardAlpha" operator="out"/>
<feColorMatrix type="matrix" values="0 0 0 0 0 0 0 0 0 0 0 0 0 0 0 0 0 0 0.25 0"/>
<feBlend mode="normal" in2="BackgroundImageFix" result="effect1_dropShadow_312_332"/>
<feBlend mode="normal" in="SourceGraphic" in2="effect1_dropShadow_312_332" result="shape"/>
</filter>
<clipPath id="clip0_312_332">
<rect width="22" height="22" fill="white" transform="translate(4)"/>
</clipPath>
</defs>
</svg>
