<svg width="40" height="42" viewBox="0 0 40 42" fill="none" xmlns="http://www.w3.org/2000/svg">
<path d="M35 35C35 35.9669 34.2542 36.75 33.3333 36.75H6.66667C5.74583 36.75 5 35.9669 5 35V7C5 6.03312 5.74583 5.25 6.66667 5.25H33.3333C34.2542 5.25 35 6.03312 35 7V35Z" fill="url(#paint0_linear_131_116)"/>
<path opacity="0.05" d="M20.8333 33.2501V23.6251H17.5V18.3751H20.8333V16.5043C20.8333 12.0926 23.055 9.66357 27.0875 9.66357C28.75 9.66357 29.6517 9.78607 30.0858 9.84557L30.8008 9.9427L30.8333 10.6961V14.8751H27.8042C26.8642 14.8751 26.6667 16.0808 26.6667 17.0932V18.3751H30.6025L29.8292 23.6251H26.6667V33.2501H20.8333Z" fill="#1D1D1D"/>
<path opacity="0.07" d="M21.2501 32.8126V23.1876H17.9167V18.8126H21.2501V16.5043C21.2501 12.3148 23.2684 10.1011 27.0876 10.1011C28.7301 10.1011 29.6126 10.2218 30.0376 10.2796L30.4009 10.3294L30.4176 10.7162V14.4376H27.8051C26.4526 14.4376 26.2509 16.1009 26.2509 17.0932V18.8126H30.1176L29.4734 23.1876H26.2501V32.8126H21.2501Z" fill="#1D1D1D"/>
<path d="M27.8041 14H29.9999V10.7152C29.5899 10.6592 28.7241 10.5376 27.0874 10.5376C23.6699 10.5376 21.6666 12.3576 21.6666 16.5042V19.25H18.3333V22.75H21.6666V32.375H25.8333V22.75H29.1149L29.6299 19.25H25.8333V17.0931C25.8333 15.4533 26.3433 14 27.8041 14Z" fill="white"/>
<defs>
<linearGradient id="paint0_linear_131_116" x1="5.19" y1="4.284" x2="36.6312" y2="36.4724" gradientUnits="userSpaceOnUse">
<stop stop-color="#0D61A9"/>
<stop offset="1" stop-color="#16528C"/>
</linearGradient>
</defs>
</svg>
