<svg width="165" height="57" viewBox="0 0 165 57" fill="none" xmlns="http://www.w3.org/2000/svg">
<path d="M5.96 14L22.76 36.68V14H24.12V42H22.76V41.92L5.68 18.88V42H4.32V17L2.12 14H5.96ZM43.4556 13.32C45.989 13.32 48.2023 13.7467 50.0956 14.6C51.989 15.4267 53.5623 16.5333 54.8156 17.92C56.069 19.28 57.0156 20.84 57.6556 22.6C58.2956 24.36 58.6156 26.16 58.6156 28C58.6156 29.84 58.2956 31.64 57.6556 33.4C57.0156 35.16 56.069 36.7333 54.8156 38.12C53.5623 39.48 51.989 40.5867 50.0956 41.44C48.2023 42.2667 45.989 42.68 43.4556 42.68C40.9223 42.68 38.6956 42.2667 36.7756 41.44C34.8823 40.5867 33.2956 39.48 32.0156 38.12C30.7623 36.7333 29.8156 35.16 29.1756 33.4C28.5623 31.64 28.2556 29.84 28.2556 28C28.2556 26.16 28.5623 24.36 29.1756 22.6C29.8156 20.84 30.7623 19.28 32.0156 17.92C33.2956 16.5333 34.8823 15.4267 36.7756 14.6C38.6956 13.7467 40.9223 13.32 43.4556 13.32ZM43.4556 14.48C41.589 14.48 39.949 14.8667 38.5356 15.64C37.149 16.4133 35.989 17.44 35.0556 18.72C34.1223 19.9733 33.4156 21.4133 32.9356 23.04C32.4823 24.6667 32.2556 26.32 32.2556 28C32.2556 29.68 32.4823 31.3333 32.9356 32.96C33.4156 34.5867 34.1223 36.04 35.0556 37.32C35.989 38.5733 37.149 39.5867 38.5356 40.36C39.949 41.1333 41.589 41.52 43.4556 41.52C45.3223 41.52 46.949 41.1333 48.3356 40.36C49.7223 39.5867 50.8823 38.5733 51.8156 37.32C52.749 36.04 53.4423 34.5867 53.8956 32.96C54.3756 31.3333 54.6156 29.68 54.6156 28C54.6156 26.32 54.3756 24.6667 53.8956 23.04C53.4423 21.4133 52.749 19.9733 51.8156 18.72C50.8823 17.44 49.7223 16.4133 48.3356 15.64C46.949 14.8667 45.3223 14.48 43.4556 14.48ZM54.6969 15.4V14H79.3769V15.4H68.9769V42H65.1369V15.4H54.6969ZM81.8281 42V14H101.788V15.4H85.7081V24.8H97.1481V26.16H85.7081V40.64H101.788V42H81.8281ZM116.867 14H120.707V42H116.867V14ZM128.156 14H131.996V42H128.156V14Z" fill="#8020BB"/>
<line y1="-1.5" x2="40.1203" y2="-1.5" transform="matrix(0.761598 0.64805 -0.661775 0.749703 118.148 4)" stroke="#8020BB" stroke-width="3"/>
<path d="M128.333 5L118.148 2L122.731 11.5" stroke="#8020BB" stroke-width="2"/>
<path d="M146.337 32.6768L144.449 25.1768L152.958 25.1768" stroke="#8020BB" stroke-width="2"/>
<path d="M150.412 35.6768L148.524 28.1768L157.032 28.1768" stroke="#8020BB" stroke-width="2"/>
<path d="M142.263 29.6768L140.376 22.1768L148.884 22.1768" stroke="#8020BB" stroke-width="2"/>
</svg>
