<svg width="178" height="59" viewBox="0 0 178 59" fill="none" xmlns="http://www.w3.org/2000/svg">
<path d="M7.152 17.4L27.312 44.616V17.4H28.944V51H27.312V50.904L6.816 23.256V51H5.184V21L2.544 17.4H7.152ZM52.1468 16.584C55.1868 16.584 57.8428 17.096 60.1148 18.12C62.3868 19.112 64.2748 20.44 65.7788 22.104C67.2828 23.736 68.4188 25.608 69.1868 27.72C69.9548 29.832 70.3388 31.992 70.3388 34.2C70.3388 36.408 69.9548 38.568 69.1868 40.68C68.4188 42.792 67.2828 44.68 65.7788 46.344C64.2748 47.976 62.3868 49.304 60.1148 50.328C57.8428 51.32 55.1868 51.816 52.1468 51.816C49.1068 51.816 46.4348 51.32 44.1308 50.328C41.8588 49.304 39.9548 47.976 38.4188 46.344C36.9148 44.68 35.7788 42.792 35.0108 40.68C34.2748 38.568 33.9068 36.408 33.9068 34.2C33.9068 31.992 34.2748 29.832 35.0108 27.72C35.7788 25.608 36.9148 23.736 38.4188 22.104C39.9548 20.44 41.8588 19.112 44.1308 18.12C46.4348 17.096 49.1068 16.584 52.1468 16.584ZM52.1468 17.976C49.9068 17.976 47.9388 18.44 46.2428 19.368C44.5788 20.296 43.1868 21.528 42.0668 23.064C40.9468 24.568 40.0988 26.296 39.5228 28.248C38.9788 30.2 38.7068 32.184 38.7068 34.2C38.7068 36.216 38.9788 38.2 39.5228 40.152C40.0988 42.104 40.9468 43.848 42.0668 45.384C43.1868 46.888 44.5788 48.104 46.2428 49.032C47.9388 49.96 49.9068 50.424 52.1468 50.424C54.3868 50.424 56.3388 49.96 58.0028 49.032C59.6668 48.104 61.0588 46.888 62.1788 45.384C63.2988 43.848 64.1308 42.104 64.6748 40.152C65.2508 38.2 65.5388 36.216 65.5388 34.2C65.5388 32.184 65.2508 30.2 64.6748 28.248C64.1308 26.296 63.2988 24.568 62.1788 23.064C61.0588 21.528 59.6668 20.296 58.0028 19.368C56.3388 18.44 54.3868 17.976 52.1468 17.976ZM65.6363 19.08V17.4H95.2523V19.08H82.7723V51H78.1643V19.08H65.6363ZM98.1938 51V17.4H122.146V19.08H102.85V30.36H116.578V31.992H102.85V49.368H122.146V51H98.1938ZM140.241 17.4H144.849V51H140.241V17.4ZM153.788 17.4H158.396V51H153.788V17.4Z" fill="#F5F5F5"/>
<line y1="-1.5" x2="40.3753" y2="-1.5" transform="matrix(0.743028 0.66926 -0.640441 0.768007 139 4.07861)" stroke="#F5F5F5" stroke-width="3"/>
<path d="M149 5.11765L139 1.99977L143.5 11.873" stroke="#F5F5F5" stroke-width="2"/>
<path d="M166.677 33.882L164.823 26.0873L173.177 26.0873" stroke="#F5F5F5" stroke-width="2"/>
<path d="M170.677 37.0002L168.823 29.2055L177.177 29.2055" stroke="#F5F5F5" stroke-width="2"/>
<path d="M162.677 30.7643L160.823 22.9696L169.177 22.9696" stroke="#F5F5F5" stroke-width="2"/>
</svg>
