<svg width="39" height="39" viewBox="0 0 39 39" fill="none" xmlns="http://www.w3.org/2000/svg">
<mask id="mask0_145_33" style="mask-type:alpha" maskUnits="userSpaceOnUse" x="0" y="0" width="39" height="39">
<g clip-path="url(#clip0_145_33)">
<path d="M29.8998 16.51C29.3798 16.64 29.1198 17.29 29.3798 17.81C30.0298 19.37 30.2898 21.06 30.2898 22.75C30.2898 30.55 23.9198 36.79 16.2498 36.79C8.57977 36.79 2.20977 30.55 2.20977 22.75C2.20977 14.95 8.44977 8.70998 16.2498 8.70998C17.6798 8.70998 19.2398 8.96998 20.6698 9.35998C21.1898 9.48998 21.7098 9.22998 21.8398 8.70998C21.9698 8.18998 21.7098 7.66998 21.1898 7.53998C19.6298 7.01998 17.9398 6.75998 16.2498 6.75998C7.40977 6.75998 0.259766 13.91 0.259766 22.75C0.259766 31.59 7.40977 38.74 16.2498 38.74C25.0898 38.74 32.2398 31.59 32.2398 22.75C32.2398 20.8 31.8498 18.85 31.1998 17.03C31.0698 16.64 30.4198 16.38 29.8998 16.51ZM16.2498 19.5C16.7698 19.5 17.2898 19.11 17.2898 18.46C17.2898 17.81 16.8998 17.42 16.2498 17.42C13.3898 17.42 11.0498 19.76 11.0498 22.62C11.0498 25.48 13.3898 27.82 16.2498 27.82C19.1098 27.82 21.4498 25.48 21.4498 22.62C21.4498 22.1 21.0598 21.58 20.4098 21.58C19.7598 21.58 19.4998 22.23 19.4998 22.75C19.4998 24.57 18.0698 26 16.2498 26C14.4298 26 12.9998 24.57 12.9998 22.75C12.9998 20.93 14.4298 19.5 16.2498 19.5ZM21.0598 14.43C21.3198 13.91 21.0598 13.39 20.5398 13.13C19.2398 12.48 17.6798 12.22 16.2498 12.22C10.3998 12.22 5.58977 16.9 5.58977 22.75C5.58977 28.6 10.3998 33.41 16.2498 33.41C22.0998 33.41 26.9098 28.6 26.9098 22.75C26.9098 21.19 26.6498 19.76 25.9998 18.46C25.7398 17.94 25.2198 17.68 24.6998 17.94C24.1798 18.2 24.0498 18.72 24.1798 19.24C24.6998 20.41 24.9598 21.58 24.9598 22.75C24.9598 27.56 21.0598 31.46 16.2498 31.46C11.4398 31.46 7.53977 27.56 7.53977 22.75C7.53977 17.94 11.4398 14.04 16.2498 14.04C17.5498 14.04 18.7198 14.3 19.7598 14.82C20.2798 15.08 20.7998 14.82 21.0598 14.43ZM38.7398 7.92998C38.6098 7.53998 38.3498 7.27998 37.9598 7.27998L32.6298 6.36998L31.7198 1.03998C31.7198 0.649984 31.4598 0.389984 31.0698 0.259984C30.6798 0.129984 30.2898 0.259984 30.0298 0.519984L23.6598 6.88998C23.3998 7.14998 23.2698 7.40998 23.3998 7.79998L24.4398 13.26L16.2498 21.45H16.1198C15.3398 21.45 14.6898 22.1 14.6898 22.88C14.6898 23.66 15.3398 24.31 16.1198 24.31C16.8998 24.31 17.5498 23.66 17.5498 22.88L25.8698 14.56L31.1998 15.6H31.3298C31.5898 15.6 31.8498 15.47 31.9798 15.34L38.3498 8.96999C38.7398 8.70998 38.8698 8.31998 38.7398 7.92998ZM25.4798 7.79998L30.1598 3.11998L30.8098 6.75998L26.2598 11.31L25.4798 7.79998ZM31.1998 13.52L27.6898 12.87L32.2398 8.31998L35.7498 8.96999L31.1998 13.52Z" fill="#262324"/>
</g>
</mask>
<g mask="url(#mask0_145_33)">
<rect x="-6.15771" width="45.1579" height="39" fill="#1D1D1D"/>
</g>
<defs>
<clipPath id="clip0_145_33">
<rect width="39" height="39" fill="white"/>
</clipPath>
</defs>
</svg>
