<svg width="35" height="36" viewBox="0 0 35 36" fill="none" xmlns="http://www.w3.org/2000/svg">
<path d="M12.75 27L8.12632 28.8323C8.05007 28.8625 8 28.9362 8 29.0182V31.9375C8 31.9399 7.99999 31.9411 8.0001 31.9436C8.00332 32.0208 8.09146 33.9149 9 34.5C9.91521 35.0894 12.6756 35.0025 12.7485 35C12.7508 35 12.7511 35 12.7534 35H17.5H22.2466C22.2489 35 22.2492 35 22.2515 35C22.3244 35.0025 25.0848 35.0894 26 34.5C26.9085 33.9149 26.9967 32.0208 26.9999 31.9436C27 31.9411 27 31.9399 27 31.9375V29.0182C27 28.9362 26.9501 28.8626 26.8739 28.8324C26.2978 28.6041 23.8749 27.6439 22.25 27" stroke="#C25DFF"/>
<path d="M5.26667 14L1.11511 15.946C1.04487 15.979 1 16.0496 1 16.1271V18.487C1 18.4956 1.00045 18.5035 1.0017 18.5121C1.02239 18.6535 1.23898 19.9975 2.06667 20.5C2.76031 20.9211 4.93012 20.9976 4.99835 20.9999C5.00051 21 5.00108 21 5.00324 21H9" stroke="#C25DFF"/>
<path d="M29.7333 14L33.8849 15.946C33.9551 15.979 34 16.0496 34 16.1271V18.487C34 18.4956 33.9996 18.5035 33.9983 18.5121C33.9776 18.6535 33.761 19.9975 32.9333 20.5C32.2397 20.9211 30.0699 20.9976 30.0016 20.9999C29.9995 21 29.9989 21 29.9968 21H26" stroke="#C25DFF"/>
<circle cx="18" cy="18" r="6.5" stroke="#C25DFF"/>
<circle cx="9" cy="6" r="5.5" stroke="#C25DFF"/>
<circle cx="26" cy="6" r="5.5" stroke="#C25DFF"/>
</svg>
