<svg width="64" height="64" viewBox="0 0 64 64" fill="none" xmlns="http://www.w3.org/2000/svg">
<path opacity="0.4" d="M32.0002 58.6934C46.7276 58.6934 58.6668 46.7545 58.6668 32.0267C58.6668 17.2992 46.7276 5.36011 32.0002 5.36011C17.2726 5.36011 5.3335 17.2992 5.3335 32.0267C5.3335 46.7545 17.2726 58.6934 32.0002 58.6934Z" fill="#6A6868"/>
<path d="M32 18.5066C26.48 18.5066 22 22.9866 22 28.5065C22 33.9198 26.24 38.3198 31.8667 38.4798C31.9467 38.4798 32.0533 38.4798 32.1067 38.4798C32.16 38.4798 32.24 38.4798 32.2933 38.4798C32.32 38.4798 32.3467 38.4798 32.3467 38.4798C37.7333 38.2932 41.9733 33.9198 42 28.5065C42 22.9866 37.52 18.5066 32 18.5066Z" fill="#6A6868"/>
<path d="M50.0819 51.6266C45.3352 55.9999 38.9885 58.6932 32.0019 58.6932C25.0152 58.6932 18.6685 55.9999 13.9219 51.6266C14.5619 49.1999 16.2952 46.9866 18.8285 45.2799C26.1085 40.4266 37.9485 40.4266 45.1752 45.2799C47.7352 46.9866 49.4419 49.1999 50.0819 51.6266Z" fill="#6A6868"/>
</svg>
