<svg width="38" height="41" viewBox="0 0 38 41" fill="none" xmlns="http://www.w3.org/2000/svg">
<path d="M2.37492 8.90479C3.62179 8.90479 5.52179 8.90479 6.59054 8.90479C7.12492 8.90479 7.54054 9.28916 7.71867 9.80166C8.25304 11.4673 9.44054 15.1188 10.8062 17.6173C12.6468 20.8845 13.8343 22.1017 14.6062 21.9735C15.378 21.7813 15.1405 19.6032 15.1405 17.8735C15.1405 16.1438 15.3187 13.197 14.5468 11.8517L13.3593 9.99385C13.0624 9.54541 13.3593 8.96885 13.8343 8.96885H20.603C21.2562 8.96885 21.7905 9.54541 21.7905 10.2501V19.5392C21.7905 19.5392 22.0874 21.2048 23.7499 19.4751C25.4124 17.7454 27.1937 14.5423 28.678 11.2751L29.2718 9.7376C29.4499 9.28916 29.8655 8.96885 30.3405 8.96885H34.7343C35.5655 8.96885 36.1593 9.86572 35.8624 10.6985L35.3874 12.0438C35.3874 12.0438 33.7843 15.5032 32.1218 17.9376C30.4593 20.436 30.103 21.0126 30.3405 21.6532C30.578 22.2938 34.853 26.586 35.9218 28.636C36.2187 29.2126 36.4562 29.7251 36.6937 30.1735C37.1093 31.0063 36.5155 32.0954 35.6249 32.0954H30.6374C30.2218 32.0954 29.8062 31.8392 29.628 31.4548L29.153 30.622C29.153 30.622 26.1249 26.7782 24.2843 25.561C22.3843 24.4079 22.4437 26.0735 22.4437 26.0735V29.4688C22.4437 30.8782 21.3749 32.0313 20.0687 32.0313H18.8812C18.8812 32.0313 12.3499 32.0313 7.12492 23.6392C3.02804 17.1048 1.66242 12.8767 1.18742 10.4423C1.06867 9.67353 1.60304 8.90479 2.37492 8.90479Z" fill="#5181B8"/>
</svg>
